<svg xmlns="http://www.w3.org/2000/svg" version="1.1" xmlns:xlink="http://www.w3.org/1999/xlink" xmlns:svgjs="http://svgjs.dev/svgjs" width="300" height="160" preserveAspectRatio="none" viewBox="0 0 300 160"><g mask="url(&quot;#SvgjsMask1862&quot;)" fill="none"><rect width="300" height="160" x="0" y="0" fill="rgba(56, 189, 248, 1)"></rect><use xlink:href="#SvgjsG1871" transform="translate(0, 0)" fill="rgba(255, 255, 255, 1)"></use></g><defs><mask id="SvgjsMask1862"><rect width="300" height="160" fill="#ffffff"></rect></mask><g id="SvgjsG1864"><path d="M7.945 2.35L0 7.479h1.862V13.677H6.372V8.755h3.134V13.677h4.513V7.479H15.874L7.945 2.35z" fill-rule="evenodd"></path></g><g id="SvgjsG1870"><path d="M14.225 3.277L11.437 4.993v2.573h-1.067V4.125h-1.292V1.133h-3.432v4.899h-1.716v-1.683L2.536 3.492 1.142 4.349v3.003H0.07v7.507l15.442-0.001V9.282h-1.287V3.277z" fill-rule="evenodd"></path></g><g id="SvgjsG1868"><path d="M14.548 5.951L13.236 2.565C12.991 1.916 12.455 1.365 11.441 1.36H4.548c-1.01 0.005-1.546 0.556-1.795 1.205l-1.312 3.386C0.92 6.019-0.002 6.63 0 7.79V12.102h1.28v1.377c-0.003 1.697 2.398 1.677 2.397 0V12.102h8.635v1.377c0.005 1.677 2.407 1.697 2.408 0V12.102h1.28V7.79c-0.004-1.16-0.926-1.772-1.452-1.838zM2.516 9.5c-0.613 0.002-1.11-0.51-1.107-1.139-0.003-0.634 0.494-1.146 1.107-1.141 0.612-0.005 1.108 0.507 1.108 1.141 0.001 0.629-0.496 1.141-1.108 1.139zM8 5.92H2.806l0.99-2.667c0.119-0.379 0.305-0.65 0.742-0.656H11.462c0.431 0.006 0.617 0.277 0.742 0.656l0.99 2.665H8z m5.484 3.58c-0.618 0.002-1.115-0.51-1.118-1.139 0.003-0.634 0.5-1.146 1.118-1.141 0.607-0.005 1.104 0.507 1.107 1.141-0.004 0.629-0.5 1.141-1.107 1.139z"></path></g><g id="SvgjsG1863"><path d="M13.031 12.687V1.875H9.957L9.97 0.071C9.957 0.078 4.189 2.651 4.189 2.651 3.256 3.097 2.919 3.747 2.919 4.632V13.347c0 1.389 1.116 2.528 2.401 2.528h7.737V14.275c-0.948-0.116-0.948-1.469-0.026-1.588z m-7.749 1.422c-0.848-0.005-0.844-1.194 0-1.194h5.399c-0.375 0.278-0.351 0.936 0.051 1.195H5.282z m6.021-2.884H6.577l3.38-1.524V3.628h1.347v7.597h-0.001z" fill-rule="evenodd"></path></g><g id="SvgjsG1866"><path d="M7.45 12.652S6.4 11.121 3.725 11.121C1.274 11.121 0 11.833 0 11.833V1.937s1.274-0.712 3.725-0.729C6.4 1.19 7.45 2.756 7.45 2.756V12.652z m1.087 0s1.05-1.531 3.725-1.531c2.451 0 3.725 0.712 3.725 0.713V1.937s-1.274-0.712-3.725-0.729c-2.675-0.017-3.725 1.548-3.725 1.548v9.896z"></path><path d="M8.012 15.733S6.4 13.411 3.725 13.411c-2.451 0-3.725 0.712-3.725 0.712v-1.186s1.274-0.712 3.725-0.729c2.675-0.018 4.287 2.34 4.287 2.34V15.733z m0 0s1.612-2.323 4.287-2.323c2.451 0 3.725 0.712 3.725 0.712v-1.185s-1.274-0.712-3.725-0.729c-2.675-0.019-4.287 2.339-4.287 2.339v1.185z"></path></g><g id="SvgjsG1865"><path d="M13.644 4.046L7.942 1.722 2.24 4.046 0.24 9.125H1.425v5.035h4.147v-4.739h4.739v4.739h4.146v-5.035h1.185L13.646 4.046h-0.002z m-4.518 3.006h-2.369v-2.369h2.369v2.369z" fill-rule="evenodd"></path></g><g id="SvgjsG1867"><path d="M13.828 10.843V16H9.151V13.513c0-1.275-1.154-1.693-1.154-1.693s-1.154 0.418-1.154 1.693V16H2.24V10.843l3.881-1.874V3.994L8.032 0l1.914 3.994v4.975L13.828 10.843zM7.374 5.885v1.052h1.311v-1.053c0-1.056-0.656-1.402-0.656-1.401s-0.655 0.346-0.655 1.401z"></path></g><g id="SvgjsG1869"><path d="M8.541 10.856h1.001v1H8.541zM8.243 14.859H10.041v-2.002h-2.001v2.002h0.201z"></path><path d="M14.225 9.282V3.277l-2.788 1.716v2.573h-1.067V4.125h-1.293V1.132h-3.432v4.899h-1.716v-1.682L2.536 3.492 1.142 4.349v3.003H0.07v7.507h3.216V9.103a1.501 1.501 0 0 1 3.004 0v1.184l-1.131 2.874h0.702v1.698h0.429v-2.127h-0.501l0.844-2.146 2.408-0.982 2.409 0.982 0.845 2.146h-0.501v2.127h0.846l2.872-0.001V9.282h-1.287z"></path></g><g id="SvgjsG1871"><use xlink:href="#SvgjsG1863" transform="translate(0, 0) scale(1.5)" fill="rgba(255, 255, 255, 1)"></use><use xlink:href="#SvgjsG1863" transform="translate(0, 36) scale(1.5)" fill="rgba(255, 255, 255, 1)"></use><use xlink:href="#SvgjsG1863" transform="translate(0, 72) scale(1.5)" fill="rgba(255, 255, 255, 1)"></use><use xlink:href="#SvgjsG1864" transform="translate(0, 108) scale(1.5)" fill="rgba(255, 255, 255, 1)"></use><use xlink:href="#SvgjsG1865" transform="translate(0, 144) scale(1.5)" fill="rgba(255, 255, 255, 1)"></use><use xlink:href="#SvgjsG1864" transform="translate(36, 0) scale(1.5)" fill="rgba(255, 255, 255, 1)"></use><use xlink:href="#SvgjsG1865" transform="translate(36, 36) scale(1.5)" fill="rgba(255, 255, 255, 1)"></use><use xlink:href="#SvgjsG1863" transform="translate(36, 72) scale(1.5)" fill="rgba(255, 255, 255, 1)"></use><use xlink:href="#SvgjsG1866" transform="translate(36, 108) scale(1.5)" fill="rgba(255, 255, 255, 1)"></use><use xlink:href="#SvgjsG1866" transform="translate(36, 144) scale(1.5)" fill="rgba(255, 255, 255, 1)"></use><use xlink:href="#SvgjsG1863" transform="translate(72, 0) scale(1.5)" fill="rgba(255, 255, 255, 1)"></use><use xlink:href="#SvgjsG1867" transform="translate(72, 36) scale(1.5)" fill="rgba(255, 255, 255, 1)"></use><use xlink:href="#SvgjsG1868" transform="translate(72, 72) scale(1.5)" fill="rgba(255, 255, 255, 1)"></use><use xlink:href="#SvgjsG1869" transform="translate(72, 108) scale(1.5)" fill="rgba(255, 255, 255, 1)"></use><use xlink:href="#SvgjsG1863" transform="translate(72, 144) scale(1.5)" fill="rgba(255, 255, 255, 1)"></use><use xlink:href="#SvgjsG1864" transform="translate(108, 0) scale(1.5)" fill="rgba(255, 255, 255, 1)"></use><use xlink:href="#SvgjsG1864" transform="translate(108, 36) scale(1.5)" fill="rgba(255, 255, 255, 1)"></use><use xlink:href="#SvgjsG1864" transform="translate(108, 72) scale(1.5)" fill="rgba(255, 255, 255, 1)"></use><use xlink:href="#SvgjsG1870" transform="translate(108, 108) scale(1.5)" fill="rgba(255, 255, 255, 1)"></use><use xlink:href="#SvgjsG1864" transform="translate(108, 144) scale(1.5)" fill="rgba(255, 255, 255, 1)"></use><use xlink:href="#SvgjsG1867" transform="translate(144, 0) scale(1.5)" fill="rgba(255, 255, 255, 1)"></use><use xlink:href="#SvgjsG1863" transform="translate(144, 36) scale(1.5)" fill="rgba(255, 255, 255, 1)"></use><use xlink:href="#SvgjsG1868" transform="translate(144, 72) scale(1.5)" fill="rgba(255, 255, 255, 1)"></use><use xlink:href="#SvgjsG1866" transform="translate(144, 108) scale(1.5)" fill="rgba(255, 255, 255, 1)"></use><use xlink:href="#SvgjsG1863" transform="translate(144, 144) scale(1.5)" fill="rgba(255, 255, 255, 1)"></use><use xlink:href="#SvgjsG1870" transform="translate(180, 0) scale(1.5)" fill="rgba(255, 255, 255, 1)"></use><use xlink:href="#SvgjsG1867" transform="translate(180, 36) scale(1.5)" fill="rgba(255, 255, 255, 1)"></use><use xlink:href="#SvgjsG1864" transform="translate(180, 72) scale(1.5)" fill="rgba(255, 255, 255, 1)"></use><use xlink:href="#SvgjsG1869" transform="translate(180, 108) scale(1.5)" fill="rgba(255, 255, 255, 1)"></use><use xlink:href="#SvgjsG1863" transform="translate(180, 144) scale(1.5)" fill="rgba(255, 255, 255, 1)"></use><use xlink:href="#SvgjsG1864" transform="translate(216, 0) scale(1.5)" fill="rgba(255, 255, 255, 1)"></use><use xlink:href="#SvgjsG1863" transform="translate(216, 36) scale(1.5)" fill="rgba(255, 255, 255, 1)"></use><use xlink:href="#SvgjsG1863" transform="translate(216, 72) scale(1.5)" fill="rgba(255, 255, 255, 1)"></use><use xlink:href="#SvgjsG1867" transform="translate(216, 108) scale(1.5)" fill="rgba(255, 255, 255, 1)"></use><use xlink:href="#SvgjsG1864" transform="translate(216, 144) scale(1.5)" fill="rgba(255, 255, 255, 1)"></use><use xlink:href="#SvgjsG1864" transform="translate(252, 0) scale(1.5)" fill="rgba(255, 255, 255, 1)"></use><use xlink:href="#SvgjsG1864" transform="translate(252, 36) scale(1.5)" fill="rgba(255, 255, 255, 1)"></use><use xlink:href="#SvgjsG1868" transform="translate(252, 72) scale(1.5)" fill="rgba(255, 255, 255, 1)"></use><use xlink:href="#SvgjsG1864" transform="translate(252, 108) scale(1.5)" fill="rgba(255, 255, 255, 1)"></use><use xlink:href="#SvgjsG1866" transform="translate(252, 144) scale(1.5)" fill="rgba(255, 255, 255, 1)"></use><use xlink:href="#SvgjsG1866" transform="translate(288, 0) scale(1.5)" fill="rgba(255, 255, 255, 1)"></use><use xlink:href="#SvgjsG1864" transform="translate(288, 36) scale(1.5)" fill="rgba(255, 255, 255, 1)"></use><use xlink:href="#SvgjsG1866" transform="translate(288, 72) scale(1.5)" fill="rgba(255, 255, 255, 1)"></use><use xlink:href="#SvgjsG1863" transform="translate(288, 108) scale(1.5)" fill="rgba(255, 255, 255, 1)"></use><use xlink:href="#SvgjsG1864" transform="translate(288, 144) scale(1.5)" fill="rgba(255, 255, 255, 1)"></use></g></defs></svg>